<?xml version="1.0" encoding="UTF-8" standalone="no"?>
<!-- Created with Inkscape (http://www.inkscape.org/) -->

<svg
   xmlns:dc="http://purl.org/dc/elements/1.1/"
   xmlns:cc="http://creativecommons.org/ns#"
   xmlns:rdf="http://www.w3.org/1999/02/22-rdf-syntax-ns#"
   xmlns:svg="http://www.w3.org/2000/svg"
   xmlns="http://www.w3.org/2000/svg"
   xmlns:sodipodi="http://sodipodi.sourceforge.net/DTD/sodipodi-0.dtd"
   xmlns:inkscape="http://www.inkscape.org/namespaces/inkscape"
   width="874.9115"
   height="219.86548"
   id="svg3083"
   version="1.1"
   inkscape:version="0.48.1 r9760"
   sodipodi:docname="New document 4">
  <defs
     id="defs3085" />
  <sodipodi:namedview
     id="base"
     pagecolor="#a0a0a0"
     bordercolor="#666666"
     borderopacity="1.0"
     inkscape:pageopacity="1"
     inkscape:pageshadow="2"
     inkscape:zoom="0.7392892"
     inkscape:cx="208.85778"
     inkscape:cy="109.93272"
     inkscape:document-units="px"
     inkscape:current-layer="layer1"
     showgrid="false"
     fit-margin-top="0"
     fit-margin-left="0"
     fit-margin-right="0"
     fit-margin-bottom="0"
     inkscape:window-width="1680"
     inkscape:window-height="975"
     inkscape:window-x="0"
     inkscape:window-y="25"
     inkscape:window-maximized="1" />
  <metadata
     id="metadata3088">
    <rdf:RDF>
      <cc:Work
         rdf:about="">
        <dc:format>image/svg+xml</dc:format>
        <dc:type
           rdf:resource="http://purl.org/dc/dcmitype/StillImage" />
        <dc:title></dc:title>
      </cc:Work>
    </rdf:RDF>
  </metadata>
  <g
     inkscape:label="Layer 1"
     inkscape:groupmode="layer"
     id="layer1"
     transform="translate(65.408493,-416.24834)">
    <rect
       style="fill:#006e55;fill-opacity:1;stroke:#ffffff;stroke-width:28.12820435;stroke-linecap:round;stroke-linejoin:round;stroke-miterlimit:4;stroke-opacity:1;stroke-dasharray:none"
       id="rect3112"
       width="846.78326"
       height="191.73727"
       x="-51.344391"
       y="430.31244"
       rx="40" />
    <g
       style="font-size:161.69824219px;font-style:normal;font-variant:normal;font-weight:bold;font-stretch:normal;line-height:125%;letter-spacing:-3.01999998px;word-spacing:0px;fill:#ffffff;fill-opacity:1;stroke:none;font-family:AlternateGothic2 BT;-inkscape-font-specification:AlternateGothic2 BT Bold"
       id="text3079">
      <path
         d="m 49.92302,548.01033 0,-75.99818 -15.523032,0 0,77.93856 c 0,10.18698 -6.144541,17.14001 -14.552841,17.14001 -9.055093,0 -15.1996351,-6.95303 -15.1996351,-17.14001 l 0,-77.93856 -15.5230309,0 0,75.99818 c 0,8.73169 1.1318904,13.25926 4.2041539,19.08039 5.3360367,9.05509 15.8464384,15.19963 26.5185121,15.19963 10.348677,0 20.535682,-6.46793 25.871718,-15.19963 3.072264,-5.82113 4.204155,-10.3487 4.204155,-19.08039"
         style="fill:#ffffff;font-family:Roadgeek 2005 Series C;-inkscape-font-specification:Roadgeek 2005 Series C Bold"
         id="path3889" />
      <path
         d="M 131.22613,580.34998 115.7031,527.15125 c 10.18698,-3.88075 15.52303,-13.25926 15.52303,-26.19511 0,-17.46339 -11.48059,-28.94399 -28.45889,-28.94399 l -32.339651,0 0,108.33783 15.523031,0 0,-50.93495 14.87624,0 14.39114,50.93495 16.00813,0 m -15.19964,-79.39384 c 0,8.7317 -5.01265,13.58265 -14.06774,13.58265 l -16.00813,0 0,-27.327 16.00813,0 c 8.4083,0 14.06774,5.33605 14.06774,13.74435"
         style="fill:#ffffff;font-family:Roadgeek 2005 Series C;-inkscape-font-specification:Roadgeek 2005 Series C Bold"
         id="path3891" />
      <path
         d="m 207.16035,550.7592 c 0,-11.15717 -5.01265,-20.21229 -13.25925,-27.00361 8.7317,-9.21679 11.31888,-13.74436 11.31888,-23.60794 0,-16.6549 -10.18701,-28.1355 -24.73984,-28.1355 l -34.11832,0 0,108.33783 31.85455,0 c 16.00811,0 28.94398,-13.25928 28.94398,-29.59078 m -17.14001,-50.61155 c 0,9.86358 -4.52756,16.00812 -11.80397,16.00812 l -16.33152,0 0,-28.94398 16.33152,0 c 8.4083,0 11.80397,3.88076 11.80397,12.93586 m 1.94038,49.47966 c 0,9.37849 -5.65945,15.52303 -14.39114,15.52303 l -15.68473,0 0,-33.79493 15.68473,0 c 7.9232,0 14.39114,7.92322 14.39114,18.2719"
         style="fill:#ffffff;font-family:Roadgeek 2005 Series C;-inkscape-font-specification:Roadgeek 2005 Series C Bold"
         id="path3893" />
      <path
         d="m 283.09457,580.34998 -27.0036,-108.33783 -15.19964,0 -27.0036,108.33783 15.68473,0 7.11472,-29.59078 23.28455,0 7.59981,29.59078 15.52303,0 m -27.0036,-44.79042 -15.52303,0 7.59981,-31.20776 7.92322,31.20776"
         style="fill:#ffffff;font-family:Roadgeek 2005 Series C;-inkscape-font-specification:Roadgeek 2005 Series C Bold"
         id="path3895" />
      <path
         d="m 355.87062,580.34998 0,-108.33783 -15.52303,0 0,65.0027 -29.75248,-65.0027 -15.52303,0 0,108.33783 15.52303,0 0,-72.60252 33.47154,72.60252 11.80397,0"
         style="fill:#ffffff;font-family:Roadgeek 2005 Series C;-inkscape-font-specification:Roadgeek 2005 Series C Bold"
         id="path3897" />
      <path
         d="m 458.81271,550.7592 c 0,-15.68472 -9.21682,-27.48872 -30.07587,-39.61607 -7.9232,-4.52755 -10.18699,-7.59982 -10.18699,-12.93586 0,-7.11472 5.65945,-12.45077 12.77416,-12.45077 6.95302,0 12.28907,4.85096 12.61247,12.45077 l 14.87623,0 c -0.48509,-16.33151 -12.12738,-28.1355 -27.4887,-28.1355 -15.52301,0 -27.6504,12.61248 -27.6504,28.1355 0,9.54019 4.52756,17.94851 13.25926,23.93134 22.15264,14.87622 16.00813,10.67208 18.2719,12.93586 6.46792,5.01264 8.73171,9.5402 8.73171,15.68473 0,8.73169 -6.79134,16.33152 -15.19964,16.33152 -10.67207,0 -15.19963,-9.54021 -15.19963,-18.5953 l -15.19964,0 c 0,17.78679 11.3189,33.79493 30.39927,33.79493 16.6549,0 30.07587,-14.06776 30.07587,-31.53115"
         style="fill:#ffffff;font-family:Roadgeek 2005 Series C;-inkscape-font-specification:Roadgeek 2005 Series C Bold"
         id="path3899" />
      <path
         d="m 532.45789,500.95614 c -1.13189,-9.86358 -2.74887,-14.55285 -6.79133,-19.88889 -5.01264,-7.11471 -12.61247,-10.99548 -21.34416,-10.99548 -21.34415,0 -32.33965,18.59534 -32.33965,53.68382 0,39.93943 10.34871,58.53476 33.47153,58.53476 15.19962,0 26.68021,-12.93587 27.00361,-30.88436 l -15.52303,0 c 0,8.0849 -2.42548,15.68473 -11.48058,15.68473 -13.25924,0 -18.59529,-12.61249 -18.59529,-43.82022 0,-28.13547 4.52756,-37.99909 17.14001,-37.99909 7.11471,0 11.31888,5.01266 12.93586,15.68473 l 15.52303,0"
         style="fill:#ffffff;font-family:Roadgeek 2005 Series C;-inkscape-font-specification:Roadgeek 2005 Series C Bold"
         id="path3901" />
      <path
         d="m 611.91917,580.34998 -27.0036,-108.33783 -15.19964,0 -27.0036,108.33783 15.68473,0 7.11472,-29.59078 23.28455,0 7.59981,29.59078 15.52303,0 m -27.0036,-44.79042 -15.52303,0 7.59981,-31.20776 7.92322,31.20776"
         style="fill:#ffffff;font-family:Roadgeek 2005 Series C;-inkscape-font-specification:Roadgeek 2005 Series C Bold"
         id="path3903" />
      <path
         d="m 684.69518,580.34998 -15.52304,-53.19873 c 10.18698,-3.88075 15.52304,-13.25926 15.52304,-26.19511 0,-17.46339 -11.4806,-28.94399 -28.4589,-28.94399 l -32.33964,0 0,108.33783 15.52303,0 0,-50.93495 14.87624,0 14.39114,50.93495 16.00813,0 m -15.19964,-79.39384 c 0,8.7317 -5.01265,13.58265 -14.06775,13.58265 l -16.00812,0 0,-27.327 16.00812,0 c 8.4083,0 14.06775,5.33605 14.06775,13.74435"
         style="fill:#ffffff;font-family:Roadgeek 2005 Series C;-inkscape-font-specification:Roadgeek 2005 Series C Bold"
         id="path3905" />
      <path
         d="m 754.97,550.7592 c 0,-15.68472 -9.21682,-27.48872 -30.07587,-39.61607 -7.92321,-4.52755 -10.18699,-7.59982 -10.18699,-12.93586 0,-7.11472 5.65945,-12.45077 12.77416,-12.45077 6.95302,0 12.28907,4.85096 12.61246,12.45077 l 14.87624,0 c -0.48509,-16.33151 -12.12738,-28.1355 -27.4887,-28.1355 -15.52301,0 -27.6504,12.61248 -27.6504,28.1355 0,9.54019 4.52756,17.94851 13.25926,23.93134 22.15263,14.87622 16.00813,10.67208 18.2719,12.93586 6.46792,5.01264 8.7317,9.5402 8.7317,15.68473 0,8.73169 -6.79133,16.33152 -15.19963,16.33152 -10.67207,0 -15.19964,-9.54021 -15.19964,-18.5953 l -15.19963,0 c 0,17.78679 11.3189,33.79493 30.39927,33.79493 16.6549,0 30.07587,-14.06776 30.07587,-31.53115"
         style="fill:#ffffff;font-family:Roadgeek 2005 Series C;-inkscape-font-specification:Roadgeek 2005 Series C Bold"
         id="path3907" />
    </g>
  </g>
</svg>
